<svg width="34" height="30" viewBox="0 0 34 30" fill="none" xmlns="http://www.w3.org/2000/svg">
<path d="M33 2.77778C33 1.79594 32.2041 1 31.2222 1H2.77778C1.79594 1 1 1.79594 1 2.77778V2.77778C1 3.75962 1.79594 4.55556 2.77778 4.55556H31.2222C32.2041 4.55556 33 3.75962 33 2.77778V2.77778ZM33 15.2222C33 14.2404 32.2041 13.4444 31.2222 13.4444H13.4444C12.4626 13.4444 11.6667 14.2404 11.6667 15.2222V15.2222C11.6667 16.2041 12.4626 17 13.4444 17H31.2222C32.2041 17 33 16.2041 33 15.2222V15.2222ZM33 27.6667C33 26.6848 32.2041 25.8889 31.2222 25.8889H2.77778C1.79594 25.8889 1 26.6848 1 27.6667V27.6667C1 28.6485 1.79594 29.4444 2.77778 29.4444H31.2222C32.2041 29.4444 33 28.6485 33 27.6667V27.6667Z" fill="black" stroke="black"/>
</svg>
