<svg width="37" height="37" viewBox="0 0 37 37" fill="none" xmlns="http://www.w3.org/2000/svg">
<path d="M24.0915 16.4268C23.4983 16.4268 23.0085 16.6324 22.6216 17.0431C22.2351 17.4541 22.0447 18.0124 22.0515 18.7174H26.1112C26.0916 17.9691 25.8887 17.4002 25.5022 17.0107C25.1157 16.6211 24.6451 16.4268 24.0915 16.4268ZM14.6373 19.0668C14.266 18.9379 13.4619 18.874 12.223 18.874H10.0249V22.4805H12.5451C13.5254 22.4805 14.1478 22.4531 14.4117 22.3977C14.8166 22.3242 15.1458 22.1445 15.4007 21.8593C15.6546 21.5741 15.7819 21.192 15.7819 20.714C15.7819 20.3089 15.6842 19.9654 15.4878 19.683C15.2915 19.4006 15.0083 19.196 14.6373 19.0668Z" fill="black"/>
<path d="M18.1345 0C8.1945 0 0.136719 8.06305 0.136719 18.0087C0.136719 27.9544 8.19481 36.0175 18.1345 36.0175C28.0747 36.0175 36.1335 27.9541 36.1335 18.0087C36.1331 8.06305 28.0747 0 18.1345 0ZM21.3278 11.8411H26.7667V13.1573H21.3278V11.8411ZM18.169 22.6328C17.8839 23.2123 17.4943 23.676 17.0007 24.0226C16.5072 24.3685 15.8988 24.5821 15.1755 24.6618C14.7215 24.711 13.6272 24.7415 11.892 24.7543H7.30351V11.2641H12.6924C13.7592 11.2641 14.5546 11.3086 15.0787 11.3977C15.6028 11.4867 16.0718 11.672 16.4857 11.9541C16.899 12.2363 17.2444 12.6121 17.5201 13.0814C17.7959 13.5506 17.934 14.0765 17.934 14.6592C17.934 15.291 17.7638 15.8711 17.4234 16.3986C17.0829 16.9261 16.6217 17.3218 16.0394 17.5856C16.8607 17.825 17.4928 18.2332 17.934 18.809C18.3753 19.3863 18.596 20.0636 18.596 20.8427C18.5963 21.4564 18.4541 22.053 18.169 22.6328ZM22.6607 22.0907C23.0795 22.517 23.6014 22.73 24.2263 22.73C24.6518 22.73 25.0093 22.6194 25.2997 22.3987C25.5891 22.1779 25.8085 22.0119 25.9567 21.5212L28.7448 21.5047C28.7264 22.4077 27.7657 23.4284 27.0148 23.9217C26.2641 24.4155 25.3249 24.6625 24.1968 24.6625C22.4123 24.6625 21.0909 24.1079 20.2345 22.9972C19.5573 22.1075 19.2193 20.9847 19.2193 19.6292C19.2193 18.0097 19.6637 16.7417 20.5529 15.8247C21.442 14.9076 22.5667 14.449 23.9263 14.449C25.4538 14.449 26.6584 14.9291 27.5416 15.8888C28.4242 16.8491 28.8459 18.3198 28.8076 20.3012H22.0037C22.0233 21.0672 22.2421 21.6638 22.6607 22.0907Z" fill="black"/>
<path d="M13.7862 16.5825C14.2523 16.5271 14.6183 16.3664 14.885 16.0993C15.1517 15.8327 15.2849 15.4815 15.2849 15.0455C15.2849 14.6286 15.1701 14.2898 14.9404 14.0285C14.7108 13.7682 14.3684 13.61 13.915 13.5549C13.6452 13.5241 12.8696 13.5091 11.5881 13.5091H10.0249V16.6286H11.8087C12.8696 16.6286 13.5291 16.6134 13.7862 16.5825Z" fill="black"/>
</svg>
