<svg width="38" height="37" viewBox="0 0 38 37" fill="none" xmlns="http://www.w3.org/2000/svg">
<path d="M18.7445 0C14.3614 0.000181809 10.1214 1.56044 6.78314 4.40159C3.44486 7.24274 1.22617 11.1794 0.52406 15.5071C-0.178055 19.8349 0.682223 24.2714 2.95096 28.0227C5.2197 31.774 8.74886 34.5955 12.907 35.9821C13.8299 36.1437 14.176 35.5898 14.176 35.1051C14.176 34.6666 14.1529 33.2125 14.1529 31.6661C9.51511 32.5201 8.31529 30.5353 7.94611 29.4966C7.53646 28.4865 6.88708 27.5914 6.05408 26.8885C5.40802 26.5423 4.48508 25.6883 6.03099 25.6653C6.62128 25.7294 7.18743 25.9348 7.68147 26.2643C8.17551 26.5937 8.58287 27.0374 8.86905 27.5578C9.12151 28.0115 9.46099 28.4109 9.86802 28.7331C10.2751 29.0553 10.7417 29.294 11.2411 29.4355C11.7405 29.577 12.2629 29.6185 12.7784 29.5577C13.2939 29.4969 13.7923 29.335 14.2451 29.0811C14.3251 28.1425 14.7433 27.2648 15.4219 26.6116C11.3148 26.15 7.02317 24.5574 7.02317 17.4949C6.99723 15.6598 7.67418 13.8844 8.9152 12.5326C8.35088 10.9377 8.41691 9.18745 9.09979 7.63963C9.09979 7.63963 10.6457 7.15492 14.176 9.53221C17.1964 8.70127 20.385 8.70127 23.4054 9.53221C26.9356 7.13186 28.4816 7.63963 28.4816 7.63963C29.1645 9.18743 29.2306 10.9378 28.6661 12.5326C29.9109 13.8821 30.5884 15.6591 30.5582 17.4949C30.5582 24.5805 26.2434 26.15 22.1363 26.6116C22.5769 27.0582 22.9161 27.5945 23.1311 28.1839C23.3461 28.7733 23.4318 29.402 23.3823 30.0275C23.3823 32.4971 23.3592 34.4819 23.3592 35.1052C23.3592 35.5899 23.7053 36.1668 24.6283 35.9822C28.779 34.5842 32.298 31.7562 34.5571 28.0029C36.8162 24.2497 37.6683 19.8155 36.9613 15.4919C36.2543 11.1684 34.0343 7.23681 30.6975 4.39912C27.3607 1.56143 23.1243 0.00228016 18.7445 0Z" fill="black"/>
</svg>
