<svg width="37" height="37" viewBox="0 0 37 37" fill="none" xmlns="http://www.w3.org/2000/svg">
<path d="M19.8029 15.9307H19.8305V15.8873L19.8029 15.9307ZM19.8029 15.9307H19.8305V15.8873L19.8029 15.9307ZM19.8029 15.9307H19.8305V15.8873L19.8029 15.9307ZM19.8029 15.9307H19.8305V15.8873L19.8029 15.9307ZM19.8029 15.9307H19.8305V15.8873L19.8029 15.9307ZM19.8029 15.9307H19.8305V15.8873L19.8029 15.9307ZM19.8029 15.9307H19.8305V15.8873L19.8029 15.9307ZM19.8029 15.9307H19.8305V15.8873L19.8029 15.9307ZM19.8029 15.9307H19.8305V15.8873L19.8029 15.9307ZM19.8029 15.9307H19.8305V15.8873L19.8029 15.9307ZM19.8029 15.9307H19.8305V15.8873L19.8029 15.9307ZM19.8029 15.9307H19.8305V15.8873L19.8029 15.9307ZM19.8029 15.9307H19.8305V15.8873L19.8029 15.9307ZM19.8029 15.9307H19.8305V15.8873L19.8029 15.9307ZM19.8029 15.9307H19.8305V15.8873L19.8029 15.9307ZM19.8029 15.9307H19.8305V15.8873L19.8029 15.9307ZM18.0087 0C14.447 0 10.9651 1.05619 8.00363 3.03502C5.0421 5.01384 2.73388 7.82642 1.37084 11.1171C0.00780257 14.4078 -0.34883 18.0287 0.346041 21.5221C1.04091 25.0154 2.75608 28.2243 5.27464 30.7428C7.79321 33.2614 11.0021 34.9766 14.4954 35.6714C17.9888 36.3663 21.6097 36.0097 24.9004 34.6466C28.1911 33.2836 31.0036 30.9754 32.9825 28.0139C34.9613 25.0523 36.0175 21.5705 36.0175 18.0087C36.0123 13.2341 34.1132 8.65656 30.7371 5.2804C27.3609 1.90424 22.7834 0.00521873 18.0087 0ZM13.5056 26.116C13.5045 26.1959 13.4721 26.2721 13.4153 26.3282C13.3584 26.3843 13.2818 26.4157 13.2019 26.4157H9.7319C9.65242 26.4157 9.57619 26.3841 9.51999 26.3279C9.46379 26.2717 9.43222 26.1955 9.43222 26.116V14.4559C9.43169 14.4162 9.43906 14.3768 9.45389 14.34C9.46871 14.3032 9.49071 14.2697 9.51859 14.2414C9.54647 14.2132 9.57968 14.1907 9.6163 14.1754C9.65292 14.1601 9.69221 14.1523 9.7319 14.1523H13.2019C13.2418 14.1523 13.2813 14.1601 13.3181 14.1754C13.355 14.1906 13.3885 14.213 13.4166 14.2412C13.4448 14.2694 13.4672 14.3029 13.4825 14.3397C13.4977 14.3765 13.5056 14.416 13.5056 14.4559V26.116ZM11.3447 12.5947C10.9134 12.5947 10.4918 12.4668 10.1332 12.2272C9.7746 11.9876 9.49511 11.647 9.33007 11.2486C9.16502 10.8501 9.12184 10.4117 9.20598 9.98866C9.29012 9.56566 9.4978 9.17711 9.80276 8.87215C10.1077 8.56719 10.4963 8.35951 10.9193 8.27537C11.3423 8.19123 11.7807 8.23441 12.1792 8.39946C12.5776 8.5645 12.9182 8.84399 13.1578 9.20259C13.3974 9.56119 13.5253 9.98279 13.5253 10.4141C13.5258 10.7006 13.4698 10.9844 13.3604 11.2492C13.251 11.514 13.0904 11.7546 12.8878 11.9572C12.6852 12.1597 12.4446 12.3203 12.1798 12.4297C11.915 12.5392 11.6312 12.5952 11.3447 12.5947ZM28.1902 26.116C28.1891 26.1959 28.1567 26.2721 28.0999 26.3282C28.043 26.3843 27.9664 26.4157 27.8865 26.4157H24.4165C24.3771 26.4157 24.3382 26.408 24.3018 26.3929C24.2655 26.3778 24.2324 26.3558 24.2046 26.3279C24.1768 26.3001 24.1547 26.2671 24.1396 26.2307C24.1246 26.1943 24.1168 26.1554 24.1168 26.116V19.8502C24.1168 18.202 23.5293 17.09 22.0545 17.09C21.595 17.0925 21.1474 17.2371 20.7733 17.504C20.3992 17.7708 20.1167 18.1468 19.9646 18.5805C19.8606 18.901 19.8152 19.2376 19.8305 19.5742V26.116C19.8305 26.1965 19.7985 26.2738 19.7416 26.3307C19.6846 26.3877 19.6074 26.4196 19.5269 26.4196H16.0568C16.0172 26.4197 15.9779 26.4118 15.9412 26.3965C15.9046 26.3812 15.8714 26.3587 15.8435 26.3305C15.8156 26.3022 15.7937 26.2687 15.7788 26.2319C15.764 26.1951 15.7566 26.1557 15.7572 26.116C15.7572 24.452 15.8005 16.3723 15.7572 14.4717C15.7566 14.432 15.764 14.3926 15.7788 14.3558C15.7937 14.3189 15.8156 14.2854 15.8435 14.2572C15.8714 14.2289 15.9046 14.2065 15.9412 14.1912C15.9779 14.1759 16.0172 14.168 16.0568 14.168H19.519C19.559 14.1675 19.5987 14.175 19.6358 14.1901C19.6729 14.2051 19.7066 14.2275 19.7349 14.2558C19.7632 14.2841 19.7855 14.3178 19.8006 14.3548C19.8157 14.3919 19.8232 14.4316 19.8226 14.4717V15.903C20.1915 15.2628 20.7286 14.7357 21.3758 14.3791C22.023 14.0225 22.7555 13.85 23.4938 13.8802C26.1712 13.8802 28.1823 15.631 28.1823 19.4007L28.1902 26.116ZM19.8305 15.9425V15.8991L19.8029 15.9425H19.8305ZM19.8029 15.9425H19.8305V15.8991L19.8029 15.9425ZM19.8029 15.9425H19.8305V15.8991L19.8029 15.9425ZM19.8029 15.9425H19.8305V15.8991L19.8029 15.9425ZM19.8029 15.9425H19.8305V15.8991L19.8029 15.9425ZM19.8029 15.9425H19.8305V15.8991L19.8029 15.9425ZM19.8029 15.9425H19.8305V15.8991L19.8029 15.9425ZM19.8029 15.9425H19.8305V15.8991L19.8029 15.9425ZM19.8029 15.9425H19.8305V15.8991L19.8029 15.9425ZM19.8029 15.9425H19.8305V15.8991L19.8029 15.9425ZM19.8029 15.9425H19.8305V15.8991L19.8029 15.9425ZM19.8029 15.9425H19.8305V15.8991L19.8029 15.9425ZM19.8029 15.9425H19.8305V15.8991L19.8029 15.9425ZM19.8029 15.9425H19.8305V15.8991L19.8029 15.9425ZM19.8029 15.9425H19.8305V15.8991L19.8029 15.9425Z" fill="black"/>
</svg>
